<svg width="512" height="512" viewBox="0 0 512 512" fill="none" xmlns="http://www.w3.org/2000/svg">
<path d="M366.286 312.322H412.741V306.019C412.741 294.188 405.666 283.939 395.367 279.314C380.343 272.568 358.222 255.952 358.222 228.083V150.115L358.202 148.487C357.345 114.942 330.082 87.9041 296.259 87.0543L294.617 87.0345H217.383C182.804 87.0345 154.669 114.401 153.798 148.487L153.778 150.115V228.083C153.778 255.081 133.019 271.518 118.062 278.652L116.633 279.314C106.656 283.794 99.704 293.553 99.2792 304.914L99.2593 306.019V312.322H145.714C157.924 263.168 202.668 226.713 256 226.713L257.469 226.721C310.152 227.384 354.189 263.619 366.286 312.322Z" fill="#592D69"/>
<path d="M193.529 312.322H318.471C307.955 288.453 283.944 271.77 256 271.77C228.056 271.77 204.045 288.453 193.529 312.322Z" fill="#592D69"/>
<path fill-rule="evenodd" clip-rule="evenodd" d="M324.148 339.356H187.852C187.852 329.743 189.881 320.601 193.529 312.322H318.471C322.119 320.601 324.148 329.743 324.148 339.356ZM369.58 339.356C369.58 330.037 368.437 320.983 366.286 312.322H412.741V306.019C412.741 294.188 405.666 283.939 395.367 279.314C380.343 272.568 358.222 255.952 358.222 228.083V150.115L358.202 148.487C357.345 114.942 330.082 87.9041 296.259 87.0543L294.617 87.0345H217.383C182.804 87.0345 154.669 114.401 153.798 148.487L153.778 150.115V228.083C153.778 255.081 133.019 271.518 118.062 278.652L116.633 279.314C106.656 283.794 99.704 293.553 99.2792 304.914L99.2593 306.019V312.322H145.714C143.675 320.531 142.541 329.093 142.429 337.9L142.42 339.356H94.716L93.547 339.328C81.9317 338.744 72.6177 329.507 72.0288 317.987L72 316.828V306.019C72 283.543 85.2747 264.144 104.472 255.109L105.391 254.687C116.156 249.853 125.892 240.771 126.49 229.21L126.519 228.083V150.115C126.519 100.346 167.2 60 217.383 60H294.617C344.8 60 385.481 100.346 385.482 150.115V228.083C385.482 240.181 395.497 249.697 406.609 254.687C426.301 263.528 440 283.186 440 306.019V316.828L439.971 317.987C439.382 329.507 430.068 338.744 418.453 339.328L417.284 339.356H369.58Z" fill="#592D69"/>
<path d="M256 406.943C218.363 406.943 187.852 376.683 187.852 339.356H142.42L142.429 340.813C143.215 402.353 193.762 452 256 452L257.469 451.991C319.032 451.218 368.791 401.868 369.571 340.813L369.58 339.356H324.148L324.126 341.101C323.193 377.622 293.049 406.943 256 406.943Z" fill="#CBA410"/>
</svg>
